<?xml version="1.0" encoding="UTF-8" standalone="no"?>
<svg width="20px" height="20px" viewBox="0 0 20 20" version="1.1" xmlns="http://www.w3.org/2000/svg" xmlns:xlink="http://www.w3.org/1999/xlink" xmlns:sketch="http://www.bohemiancoding.com/sketch/ns">
    <!-- Generator: sketchtool 3.5.1 (25234) - http://www.bohemiancoding.com/sketch -->
    <title>Facebook</title>
    <desc>Created with sketchtool.</desc>
    <defs>
        <path id="path-1" d="M0,0 L20,0 L20,20 L0,20"></path>
    </defs>
    <g id="HK-Grotesk" stroke="none" stroke-width="1" fill="none" fill-rule="evenodd" sketch:type="MSPage">
        <g id="Navigation-(320)" sketch:type="MSArtboardGroup" transform="translate(-65.000000, -508.000000)">
            <g id="Navigation" sketch:type="MSLayerGroup">
                <g id="Social" transform="translate(65.000000, 508.000000)">
                    <g id="Facebook">
                        <mask id="mask-2" sketch:name="Clip 2" fill="white">
                            <use xlink:href="#path-1"></use>
                        </mask>
                        <g id="Clip-2"></g>
                        <path d="M18.8965,0 L1.1035,0 C0.4945,0 0.0005,0.494 0.0005,1.104 L0.0005,18.896 C0.0005,19.506 0.4945,20 1.1035,20 L10.6825,20 L10.6825,12.255 L8.0765,12.255 L8.0765,9.236 L10.6825,9.236 L10.6825,7.011 C10.6825,4.427 12.2605,3.021 14.5645,3.021 C15.6685,3.021 16.6175,3.103 16.8935,3.14 L16.8935,5.839 L15.2955,5.84 C14.0425,5.84 13.7995,6.436 13.7995,7.31 L13.7995,9.236 L16.7895,9.236 L16.3995,12.255 L13.7995,12.255 L13.7995,20 L18.8965,20 C19.5055,20 20.0005,19.506 20.0005,18.896 L20.0005,1.104 C20.0005,0.494 19.5055,0 18.8965,0" id="Fill-1" fill="#F4447B" sketch:type="MSShapeGroup" mask="url(#mask-2)"></path>
                    </g>
                </g>
            </g>
        </g>
    </g>
</svg>