<?xml version="1.0" encoding="UTF-8" standalone="no"?>
<svg width="20px" height="20px" viewBox="0 0 20 20" version="1.1" xmlns="http://www.w3.org/2000/svg" xmlns:xlink="http://www.w3.org/1999/xlink" xmlns:sketch="http://www.bohemiancoding.com/sketch/ns">
    <!-- Generator: sketchtool 3.5.1 (25234) - http://www.bohemiancoding.com/sketch -->
    <title>Instagram</title>
    <desc>Created with sketchtool.</desc>
    <defs>
        <path id="path-1" d="M0,20 L19.8924561,20 L19.8924561,0.10754386 L0,0.10754386 L0,20 Z"></path>
    </defs>
    <g id="HK-Grotesk" stroke="none" stroke-width="1" fill="none" fill-rule="evenodd" sketch:type="MSPage">
        <g id="Navigation-(320)" sketch:type="MSArtboardGroup" transform="translate(-114.000000, -508.000000)">
            <g id="Navigation" sketch:type="MSLayerGroup">
                <g id="Social" transform="translate(65.000000, 508.000000)">
                    <g id="Instagram" transform="translate(49.000000, 0.000000)">
                        <mask id="mask-2" sketch:name="Clip 2" fill="white">
                            <use xlink:href="#path-1"></use>
                        </mask>
                        <g id="Clip-2"></g>
                        <path d="M17.5678421,19.9659123 L2.291,19.9659123 C1.02591228,19.9659123 -5.2631578e-05,18.9397719 -5.2631578e-05,17.673807 L-5.2631578e-05,2.39854386 C-5.2631578e-05,1.1332807 1.02591228,0.107666667 2.291,0.107666667 L17.5678421,0.107666667 C18.8331053,0.107666667 19.8587193,1.1332807 19.8587193,2.39854386 L19.8587193,17.673807 C19.8585439,18.9397719 18.8331053,19.9659123 17.5678421,19.9659123 L17.5678421,19.9659123 Z M9.92924561,6.21766667 C7.81994737,6.21766667 6.11012281,7.92714035 6.11012281,10.0364386 C6.11012281,12.145386 7.81994737,13.8559123 9.92924561,13.8559123 C12.0383684,13.8559123 13.7483684,12.145386 13.7483684,10.0364386 C13.7483684,7.92714035 12.0383684,6.21766667 9.92924561,6.21766667 L9.92924561,6.21766667 Z M17.5678421,3.16222807 C17.5678421,2.74064912 17.2257368,2.39854386 16.8032807,2.39854386 L14.5124035,2.39854386 C14.0904737,2.39854386 13.7483684,2.74064912 13.7483684,3.16222807 L13.7483684,5.45398246 C13.7483684,5.8755614 14.0902982,6.21766667 14.5124035,6.21766667 L16.8032807,6.21766667 C17.2257368,6.21766667 17.5678421,5.8755614 17.5678421,5.45398246 L17.5678421,3.16222807 Z M17.5678421,8.50836842 L15.8390702,8.50836842 C15.9648596,8.99731579 16.0392456,9.50819298 16.0392456,10.0364386 C16.0392456,13.4115263 13.303807,16.1467895 9.92942105,16.1467895 C6.55503509,16.1467895 3.81942105,13.4115263 3.81942105,10.0364386 C3.81942105,9.50819298 3.89415789,8.99731579 4.01994737,8.50836842 L2.29117544,8.50836842 L2.29117544,16.9106491 C2.29117544,17.3317018 2.63310526,17.673807 3.0555614,17.673807 L16.8032807,17.673807 C17.2257368,17.673807 17.5678421,17.3320526 17.5678421,16.9106491 L17.5678421,8.50836842 Z" id="Fill-1" fill="#F4447B" sketch:type="MSShapeGroup" mask="url(#mask-2)"></path>
                    </g>
                </g>
            </g>
        </g>
    </g>
</svg>