<?xml version="1.0" encoding="UTF-8" standalone="no"?>
<svg width="22px" height="18px" viewBox="0 0 22 18" version="1.1" xmlns="http://www.w3.org/2000/svg" xmlns:xlink="http://www.w3.org/1999/xlink" xmlns:sketch="http://www.bohemiancoding.com/sketch/ns">
    <!-- Generator: sketchtool 3.5.1 (25234) - http://www.bohemiancoding.com/sketch -->
    <title>Twitter</title>
    <desc>Created with sketchtool.</desc>
    <defs>
        <path id="path-1" d="M0,0.790941176 L21.1764706,0.790941176 L21.1764706,18 L0,18"></path>
    </defs>
    <g id="HK-Grotesk" stroke="none" stroke-width="1" fill="none" fill-rule="evenodd" sketch:type="MSPage">
        <g id="Navigation-(320)" sketch:type="MSArtboardGroup" transform="translate(-164.000000, -509.000000)">
            <g id="Navigation" sketch:type="MSLayerGroup">
                <g id="Social" transform="translate(65.000000, 508.000000)">
                    <g id="Twitter" transform="translate(99.000000, 1.000000)">
                        <mask id="mask-2" sketch:name="Clip 2" fill="white">
                            <use xlink:href="#path-1"></use>
                        </mask>
                        <g id="Clip-2"></g>
                        <path d="M21.1764706,2.82748235 C20.3971765,3.17371765 19.5596471,3.40665882 18.6808235,3.51148235 C19.5787059,2.97465882 20.2669412,2.12230588 20.5909412,1.10795294 C19.7523529,1.6056 18.8216471,1.96771765 17.8327059,2.16254118 C17.0396471,1.3176 15.9109412,0.790305882 14.6615294,0.790305882 C12.2622353,0.790305882 10.3171765,2.73536471 10.3171765,5.13465882 C10.3171765,5.4756 10.3552941,5.80701176 10.4294118,6.12465882 C6.81776471,5.9436 3.61694118,4.21454118 1.47388235,1.58548235 C1.10011765,2.22712941 0.886235294,2.9736 0.886235294,3.76983529 C0.886235294,5.27654118 1.65282353,6.60642353 2.81858824,7.38571765 C2.10705882,7.36348235 1.43682353,7.16865882 0.851294118,6.84254118 C0.850235294,6.86054118 0.850235294,6.87854118 0.850235294,6.8976 C0.850235294,9.00254118 2.34847059,10.7580706 4.33588235,11.1572471 C3.97058824,11.2567765 3.58729412,11.3097176 3.19129412,11.3097176 C2.91176471,11.3097176 2.63858824,11.2821882 2.37388235,11.2313647 C2.92658824,12.9572471 4.53070588,14.2140706 6.43235294,14.2490118 C4.94470588,15.4147765 3.07164706,16.1083059 1.03658824,16.1083059 C0.685058824,16.1083059 0.339882353,16.0881882 0,16.0479529 C1.92282353,17.2804235 4.20670588,18.0004235 6.66,18.0004235 C14.6509412,18.0004235 19.0207059,11.3796 19.0207059,5.63865882 C19.0207059,5.45018824 19.0164706,5.26277647 19.0090588,5.07642353 C19.8571765,4.46442353 20.5941176,3.69889412 21.1764706,2.82748235" id="Fill-1" fill="#F4447B" sketch:type="MSShapeGroup" mask="url(#mask-2)"></path>
                    </g>
                </g>
            </g>
        </g>
    </g>
</svg>